<svg xmlns="http://www.w3.org/2000/svg" xmlns:xlink="http://www.w3.org/1999/xlink" viewBox="0 0 2631.3 2753.62"><defs><style>.cls-1{fill:none;}.cls-2{isolation:isolate;}.cls-3{clip-path:url(#clip-path);}.cls-4{clip-path:url(#clip-path-2);}.cls-5,.cls-7{fill:#002337;}.cls-6{fill:#beb8f2;}.cls-6,.cls-9{mix-blend-mode:soft-light;}.cls-13,.cls-7{mix-blend-mode:overlay;}.cls-8{clip-path:url(#clip-path-3);}.cls-9{fill:#fcfdfe;}.cls-10{fill:url(#linear-gradient);}.cls-11{fill:url(#linear-gradient-2);}.cls-12{fill:url(#linear-gradient-3);}.cls-13,.cls-16,.cls-20{fill:#fff;}.cls-13{opacity:0.2;}.cls-14{clip-path:url(#clip-path-4);}.cls-15{fill:#00a1ff;}.cls-16{opacity:0.17;}.cls-17{fill:url(#linear-gradient-4);}.cls-18{fill:#d8dee8;}.cls-19{fill:url(#linear-gradient-5);}.cls-21{fill:#f4f7fa;}.cls-22{fill:#26264f;}.cls-23{opacity:0.3;mix-blend-mode:multiply;fill:url(#linear-gradient-6);}</style><clipPath id="clip-path" transform="translate(-539.03 -549.43)"><polygon class="cls-1" points="1969.96 2596.54 598.47 2334.93 497.42 493.4 1969.96 493.4 1969.96 2596.54"/></clipPath><clipPath id="clip-path-2" transform="translate(-539.03 -549.43)"><path class="cls-1" d="M1321.19,3155.34c-189.59-390.06,76.75-573.63,179.17-673,154.45-149.82,239.4-373,15.92-484.77s7.22-560.24,284-753.54c270.81-189.16,160-946.27-455.95-609.29C976.42,836,1028.06,1352.6,1007.52,1620s-322,272.72-222.5,606.34c85,285,196.94,631.43,67.15,816.81S1414.12,3346.52,1321.19,3155.34Z"/></clipPath><clipPath id="clip-path-3" transform="translate(-539.03 -549.43)"><path class="cls-1" d="M1315,2868.23c175.73-395.17-250.25-525.93-62.48-1053,50-140.18,189.13-389.7,118.25-546.34-80.75-178.45-217.43-91.16-260.57-230.48-67.43-217.75-251.91-361-435.68-239.85C493.11,918.16,520.15,1314,789.34,1732.73c161.21,323.75,140.87,392.78,63.12,549.41C798,2391.85,587.89,2649.92,691.6,2829.24S1250.19,3013.87,1315,2868.23Z"/></clipPath><linearGradient id="linear-gradient" x1="-1111.41" y1="2641.87" x2="62.39" y2="2263.53" gradientTransform="matrix(-1, 0, 0, 1, 1501.95, 0)" gradientUnits="userSpaceOnUse"><stop offset="0" stop-color="#444b8c"/><stop offset="1" stop-color="#26264f"/></linearGradient><linearGradient id="linear-gradient-2" x1="-1363.65" y1="1976.55" x2="752.36" y2="1976.55" xlink:href="#linear-gradient"/><linearGradient id="linear-gradient-3" x1="-1377.58" y1="1976.55" x2="729.71" y2="1976.55" gradientTransform="matrix(-1, 0, 0, 1, 1501.95, 0)" gradientUnits="userSpaceOnUse"><stop offset="0" stop-color="#e38ddd"/><stop offset="1" stop-color="#9571f6"/></linearGradient><clipPath id="clip-path-4" transform="translate(-539.03 -549.43)"><path class="cls-1" d="M1163,2407l1422.92-93.69c87.66-5.77,154.73-58.5,154.73-121.63V1675c0-63.14-67.07-115.87-154.73-121.64L1163,1459.68c-99.78-6.57-185.87,49.77-185.87,121.64v704C977.14,2357.22,1063.23,2413.56,1163,2407Z"/></clipPath><linearGradient id="linear-gradient-4" x1="6360.66" y1="3033.56" x2="6407.42" y2="3175.96" gradientTransform="translate(-4069.98)" xlink:href="#linear-gradient"/><linearGradient id="linear-gradient-5" x1="6232.21" y1="3065.72" x2="6282.91" y2="3220.1" gradientTransform="translate(-4069.98)" xlink:href="#linear-gradient"/><linearGradient id="linear-gradient-6" x1="6578.27" y1="2480.24" x2="6634.79" y2="3312.34" gradientTransform="translate(-4069.98)" gradientUnits="userSpaceOnUse"><stop offset="0" stop-color="#ffc444"/><stop offset="1" stop-color="#f36f56"/></linearGradient></defs><title>HD</title><g class="cls-2"><g id="Illustration"><g class="cls-3"><g class="cls-4"><path class="cls-5" d="M1800.25,1244.05c-276.75,193.3-464.27,582.8-258.11,744.62,182.21,143,112.67,343.87-41.78,493.69-76.87,74.57-246.08,196.59-245.55,417.74-13.78-2.1,128.06,354.29,114.1,358-62.29,16.51-186-36.61-188.88,45l-370-151.75c9.08-86.46,42.84-166.2,95.26-241.07,129.79-185.38-35.3-398.94-120.3-683.91-99.51-333.61,202-339,222.5-606.33s-31.1-784,336.78-985.23C1960.3,297.78,2071.07,1054.88,1800.25,1244.05Z" transform="translate(-539.03 -549.43)"/><path class="cls-6" d="M2009.24,735.67,2007.79,725c-280.14,56.52-501.26,245.31-657.21,561.11q-28.32,57.35-53.78,120.27c-25.68-358.68,79.89-848,81-852.93l-7.86-3.28c-1.1,5.06-110,509.84-80.12,871.8l.84-.09c-91.73,232.05-154.87,518.85-188.06,855.22-6.66,67.53-11.86,134.84-15.85,201.35C1026,2165.75,778.59,1941.87,776,1939.56l-4.44,8.94c2.66,2.37,265.63,240.39,313.07,566.5-3.9,72.76-6.36,144.4-7.68,214.14a.19.19,0,0,1,0,.07h0c-2.36,124.5-1.08,242.93,2.21,350.74l8.1-2.15c-3.22-106.69-4.47-223.77-2.16-346.79,97.61-504.87,622.69-600.71,627.88-601.07l-.12-10.84c-5-.28-509,94.35-626.81,568.9,3.35-132.1,10.92-270.34,24.65-409.48,35.13-355.93,115.73-758.64,291.1-1065.83,276.42-208,530.26-85.69,532.8-84.42l2.69-10.14c-2.53-1.26-249.59-120.52-522.77,72.77C1550.68,962,1741.78,789.64,2009.24,735.67ZM834.06,2958.09l-6.19,6.86c1.48,2.33,6.14,7.23,17.49,19.07,23.91,24.95,68.3,71.32,113.1,127.93l9.61-2.54c-46.46-59.4-93-108-117.76-133.84C842.16,2967.06,835.12,2959.72,834.06,2958.09Z" transform="translate(-539.03 -549.43)"/></g><path class="cls-7" d="M1342.2,2561.44c-22.07-18.25,20.15,59.43-9.08,59.43-60.09,0-30,55-195.88,17.32H673.68c34-139.7,141.94-281.82,178.78-356.05,77.75-156.63,98.09-225.66-63.12-549.41C520.15,1314,493.11,918.16,674.48,798.57c183.77-121.18,368.25,22.1,435.68,239.85,43.14,139.31,179.82,52,260.57,230.48,70.88,156.64-68.31,406.16-118.25,546.34C1122,2181.39,1287.75,2356.29,1342.2,2561.44Z" transform="translate(-539.03 -549.43)"/><g class="cls-8"><path class="cls-9" d="M1037.83,2039.57c-25.14-358.91,293.42-873.6,296.65-878.76l-6.55-4.65c-3,4.82-279.84,452.14-298.34,805.74q-14.14-124.85-35.18-246-15.48-89-34.74-175.91l0,0-.09-.22c-23.81-107.7-51.82-212.71-83.86-314.2l.12,0c-24.4-198.72-6.86-413.52-1.09-484.1,1.39-17.09,1.86-23.1,1.69-25.23l-7.83.74c.11,1.63-.68,11.4-1.7,23.76C861.6,806.32,846.1,996,863.33,1182.3a.74.74,0,0,1-1.45.3q-11.83-35.88-24.34-71.14c-47.28-133.12-101.17-258-160.18-371.16-10.28-19.72-21.83-39.28-33-58.19-14.88-25.2-30.26-51.25-42.77-77.9l-7,3.75c12.67,27,28.16,53.25,43.14,78.62,11.11,18.82,22.6,38.28,32.78,57.8,58.83,112.8,112.55,237.31,159.7,370.05,45,126.84,83.55,260,115.14,397.75-94.4-157-390.34-273.28-403.61-278.43l-2.69,7.88c3.4,1.32,340.37,133.69,413.13,301q19.07,86.34,34.52,174.86c45.71,262.74,67,540.24,63.34,824.79-.41,31.83-1.24,63.84-2.28,95.94h7.86c1-32.06,1.87-64,2.28-95.83a4672.09,4672.09,0,0,0-20.24-502.77Zm-334,444.18c1.42,1.41,63.84,64.09,132.66,154.44h10c-70.75-93.74-135.81-159.12-137.26-160.57Z" transform="translate(-539.03 -549.43)"/></g></g><path class="cls-5" d="M1546.33,2777v81.44l-250.08,242h-77L1315.48,2896s44.89-26.83-51.29-26.83l-346.27,69.51,4.94-21.66,411.86-133.12S1463,2777,1546.33,2777Z" transform="translate(-539.03 -549.43)"/><path class="cls-10" d="M2568.27,2617.13l2.68,31,144.12,95.23,22.08-21.36-84.49-85.66s-16.79-5,8.34-13.41l79.66-5.72-6-4.89-103.12-8.08S2595.7,2610.68,2568.27,2617.13Z" transform="translate(-539.03 -549.43)"/><path class="cls-11" d="M847.94,2891.19c-53.85,8.32-98.35-22.92-98.35-69.76V1133c0-46.84,44.5-78.81,98.34-71.37L2820.71,1334c24.87,3.43,44.89,31.61,44.89,62.84V2522.73c0,31.23-20,59.74-44.89,63.58Z" transform="translate(-539.03 -549.43)"/><path class="cls-12" d="M870.14,2889.09c-53.6,8.29-97.89-22.88-97.89-69.62V1135c0-46.73,44.29-78.64,97.89-71.23L2834.81,1335.2c24.78,3.42,44.72,31.54,44.72,62.72V2521.74c0,31.18-19.94,59.63-44.72,63.46Z" transform="translate(-539.03 -549.43)"/><path class="cls-5" d="M2834.81,1361.8,870.14,1102.59c-28.58-3.77-51.94,13.28-51.94,38.12V2813c0,24.84,23.36,41.51,51.94,37.26L2834.81,2558.6c13.3-2,24-17.16,24-33.94V1395.34C2858.83,1378.57,2848.11,1363.55,2834.81,1361.8Z" transform="translate(-539.03 -549.43)"/><path class="cls-5" d="M870.14,2708.57C859,2710,850,2703.27,850,2693.64v-1549c0-9.63,9.06-16.31,20.17-14.89l1964.67,250.64c5.19.66,9.41,6.54,9.41,13.1v1055c0,6.55-4.22,12.42-9.41,13.07Z" transform="translate(-539.03 -549.43)"/><path class="cls-13" d="M2667.8,2514.34c-139.93-98.08-41.67-405.76-200.86-558-167.1-159.85-414.29,36.16-542.95-136.23-98.36-131.79,16.51-282.9-77-409.64-150.8-204.39-561.77,39.89-763.65-176.55-29.38-31.5-59.21-78.35-76.28-151.23l-136.93-18.92c-53.6-7.41-97.89,24.5-97.89,71.23v1684.5c0,46.74,44.29,77.91,97.89,69.62L2834.81,2585.2c24.78-3.83,44.72-32.28,44.72-63.46v-20C2775.37,2554.06,2710.29,2544.11,2667.8,2514.34Z" transform="translate(-539.03 -549.43)"/><g class="cls-14"><path class="cls-15" d="M1171.38,2404.85l1487-99.56c91.6-6.14,161.7-62.18,161.7-129.27V1626.91c0-67.1-70.1-123.14-161.7-129.27l-1487-99.57c-104.28-7-194.24,52.89-194.24,129.27v748.24C977.14,2352,1067.1,2411.83,1171.38,2404.85Z" transform="translate(-539.03 -549.43)"/><path class="cls-16" d="M1449.05,2280.45c218-80.39,183.72-232.53,398.06-317.25,251.34-99.34,472.68,41,641.33-59.15,72-42.74,141.27-133.39,108.41-348,82.22,9.41,143.81,61.09,143.81,122.59v525.44c0,64.21-67.08,117.84-154.73,123.71L1163,2423.09c-99.78,6.68-185.87-50.61-185.87-123.7v-12C1107.68,2317,1288.55,2339.63,1449.05,2280.45Z" transform="translate(-539.03 -549.43)"/></g><path class="cls-5" d="M1698.58,1719.27v75.12l120.32,7.53V1730l32.49,2.85v169.93l-32.49-.83v-80.62l-120.32-6.68v84.17l-32.12-.84V1716.37Z" transform="translate(-539.03 -549.43)"/><path class="cls-5" d="M1907.12,1739.91c19.56-.29,42.82.26,68.29,2.45,46.13,4,79,13.53,100.76,28.07,22.15,14.35,35.07,33.12,35.07,58.06,0,25.17-12.55,45.28-35.8,58.78-23.26,14-61.65,21-110,19.83-22.88-.57-42.08-1.77-58.32-3.42Zm32.11,148.24c8.12,1.22,19.94,1.83,32.48,2.22,68.66,2.1,105.94-20.87,105.94-63,.37-36.82-32.85-62.83-100.77-68.22-16.61-1.33-29.16-1.36-37.65-.82Z" transform="translate(-539.03 -549.43)"/><path class="cls-5" d="M1483.39,2231.25c-11.81,5.66-35.44,12.44-65.7,15.24-70.14,6.53-122.92-25.21-122.92-92.82,0-64.55,52.78-109.56,129.93-111.39,31-.73,50.57,4,59.06,7.23l-7.76,20.64c-12.18-4.22-29.52-7.16-50.19-6.52-58.32,1.8-97.08,33.56-97.08,87.1,0,49.91,35.06,78.94,95.6,73.76,19.56-1.67,39.49-6.54,52.41-12.51Z" transform="translate(-539.03 -549.43)"/><path class="cls-5" d="M1522.51,2032.91l32.48-.67v84.6l.74,0c5.17-7.25,13.29-13.77,23.25-18.38a86.21,86.21,0,0,1,33.22-8.31c24-1,62.38,8.2,62.38,53.06v77.37l-32.48,2.85v-75.54c0-21.2-10.7-38.62-41.34-37.15-21,1-37.65,13-43.55,26.74-1.85,3.46-2.22,7.13-2.22,11.89v81.79l-32.48,2.92Z" transform="translate(-539.03 -549.43)"/><path class="cls-5" d="M1826.28,2207.43l-2.58-15.31-1.11.09c-10,10.51-29.16,20.86-54.62,23.08-36.18,3.16-54.63-13.5-54.63-32.05,0-31,38.38-50.17,107.41-53.86v-2.55c0-10.19-4.06-28.37-40.6-26.7-16.61.77-34,5.23-46.51,11.62l-7.38-14.94c14.76-7.47,36.17-12.79,58.68-13.68,54.63-2.16,67.92,22.76,67.92,47.21V2176c0,10.58.74,20.85,3,29Zm-4.79-62.54c-35.44,1.7-75.67,8.68-75.67,33.31,0,14.92,14,20.86,30.63,19.51,23.26-1.88,38-13.29,43.19-24.14a18,18,0,0,0,1.85-7.27Z" transform="translate(-539.03 -549.43)"/><path class="cls-5" d="M1905.27,2113.5a287.15,287.15,0,0,0-1.47-32.33l28.79-1.14,1.84,19.49.74,0c8.86-11.62,29.53-23.38,59.06-24.51,24.73-.95,63.12,6.94,63.12,45.71v67.49l-32.49,2.66v-66c0-18.45-10.7-33.34-41.34-32-21.4,1-38,11.7-43.55,23.93a22.15,22.15,0,0,0-2.22,10.13V2198l-32.48,2.71Z" transform="translate(-539.03 -549.43)"/><path class="cls-5" d="M2110.13,2103.09a243.94,243.94,0,0,0-1.48-29.93l28.79-1.1,1.85,18,.74,0c8.85-10.77,29.52-21.68,59-22.77,24.73-.9,63.12,6.33,63.12,42.14v62.36l-32.48,2.55v-61c0-17-10.71-30.79-41.34-29.47-21.41.92-38,10.88-43.56,22.21a19.37,19.37,0,0,0-2.21,9.38v65.78l-32.48,2.61Z" transform="translate(-539.03 -549.43)"/><path class="cls-5" d="M2333.07,2118.87c.74,24.91,28.79,33.16,61.27,30.83,23.25-1.66,37.28-4.87,49.46-8.53l5.54,12.22c-11.44,3.66-31,8.38-59.43,10.57-55,4.27-87.85-14-87.85-45s31.75-56.57,83.79-58.42c58.32-2,73.82,25.11,73.82,42.85a37.34,37.34,0,0,1-1.1,8.23Zm95.23-18.22c.37-11.32-8.49-28.52-45-27-32.85,1.33-47.25,19.1-49.83,32Z" transform="translate(-539.03 -549.43)"/><path class="cls-5" d="M2499.91,2014.44l32.48-.55v137.3l-32.48,2.41Z" transform="translate(-539.03 -549.43)"/><path class="cls-17" d="M2335.59,3068.81l.56,4.43a10.71,10.71,0,0,1-12.08,12c-19.49-2.73-42.49-6.47-52.41-16.68-14.1-14.53-4-27.53,10-17.85,10.92,7.57,32.94,9.6,46.9,11.16A8,8,0,0,1,2335.59,3068.81Z" transform="translate(-539.03 -549.43)"/><path class="cls-18" d="M2307.91,3039.38c-.94,1.38,1.66,14,3,20a7.68,7.68,0,0,0,4,5.25,19.71,19.71,0,0,0,9.78,2.29,7.47,7.47,0,0,0,7-7l1.09-15.94Z" transform="translate(-539.03 -549.43)"/><path class="cls-5" d="M2304.47,3051.42l31.64,6.51s40.07-90.52,122.48-85.81,153.54,122.55,153.54,122.55L2821,3127.33a1031.33,1031.33,0,0,0-93.69-167.58c-69.52-101-110.67-160.73-180.83-171.32-81-12.23-149.22,48.81-167.06,64.77-15.16,13.56-75.53,67.59-79.34,149.79A180.16,180.16,0,0,0,2304.47,3051.42Z" transform="translate(-539.03 -549.43)"/><path class="cls-19" d="M2194.78,3095.26c-12.18,6-3.25,6.47-36.48-5.41-12.56-4.49-23.71-.63-24.78,5.38s12.62,9.3,41.67,22.75c28,12.95,41.1,9.35,39.71-7.6-.22-2.72-1.73-9.57-3.61-11.48C2205.53,3093,2194.78,3095.26,2194.78,3095.26Z" transform="translate(-539.03 -549.43)"/><path class="cls-18" d="M2197.34,3076.2c2.49,3.73,8.25,12.88,11.39,22.2a7.85,7.85,0,0,1-9.25,10.08l-4.62-1.06a12.2,12.2,0,0,1-6.61-4l-20-23.62a4.55,4.55,0,0,1,3.88-7.47l21.82,1.93A4.48,4.48,0,0,1,2197.34,3076.2Z" transform="translate(-539.03 -549.43)"/><path class="cls-5" d="M2167.72,3087.12l43.57-1.18A215.15,215.15,0,0,1,2188,2976.42c104.63,22.41,177.38,58.33,225.29,87.9,27.12,16.73,47.68,32.3,112.79,72.73,70.91,44,106.94,66.21,135.31,73.85,32.09,8.63,146.36,16.28,234.65-23.31-53.81-96.61-197.59-221.1-346.82-313.6-78.87-48.87-191.9-118.93-316.47-86.41-25.62,6.69-123.89,32.34-146.3,114.67C2069.53,2964.51,2101.62,3038.34,2167.72,3087.12Z" transform="translate(-539.03 -549.43)"/><path class="cls-15" d="M2717.61,2439.91a556.76,556.76,0,0,1,138.45,1.9c19.89,2.78,91.11,13.82,177.13,56.56,73,36.25,129.84,64.49,136.6,115.39.35,2.68,5.18,43.7-21.79,70.14-67.46,66.14-257.49-33.86-272.59-1.84-5.08,10.77,14.79,25.56,9.42,33-9.8,13.52-93.92-11-140.13-67.12C2679.94,2569.21,2712.63,2456.23,2717.61,2439.91Z" transform="translate(-539.03 -549.43)"/><path class="cls-15" d="M2410.1,2495.57c-96.5,50.22-144,121-152.89,134.68-18.76,28.77-77.78,119.29-43.28,168.12,22.3,31.57,73.25,31,79.79,30.88,37.64-.46,49.94-18.75,123.39-52.34,49.81-22.78,74.72-34.17,94.45-31.27,65.46,9.63,101.17,105.06,108.21,123.85,29.53,78.91-1.16,98.21,23.67,171.71,8,23.74,47.45,129,146,156.61,72.53,20.32,135.66-13,151.19-21.22,95.46-50.43,120.1-152.7,126.7-180.14,20.5-85.12-1.87-154.71-16.48-200.17-24-74.52-70.69-132.36-164.15-248-52.92-65.49-70.7-79.28-91.37-89.91-57.49-29.56-114.18-22.8-194-13.28C2538,2452.6,2479.18,2459.62,2410.1,2495.57Z" transform="translate(-539.03 -549.43)"/><path class="cls-20" d="M2615.39,2384.67l11.28,24.57a45.76,45.76,0,0,0,32.45,25.75l36.13,9.27a4.65,4.65,0,0,1,.55,8.85c-22.26,8.36-70.58,23-125.19,17.32-75-7.76-20.07-16.67-1.91-17.94s28.54-9.25,33.63-22.14-9.1-33.18-9.1-33.18Z" transform="translate(-539.03 -549.43)"/><path class="cls-21" d="M2604.62,2426.74c-2.55-1.39-23.24-3.91-26.1-15-3.87-15.11,9.71-33.5,11.4-36.46,7.08-12.39,8.86-14.06,12.16-16.16l4.57-2.68.54-.19c2.92-1,12.79-1,14.77-.57,6.36,1.51,12.56,27.66,9.79,64.38.24,1.41.46,2.83.67,4.26C2633,2428,2604.43,2428.05,2604.62,2426.74Z" transform="translate(-539.03 -549.43)"/><path class="cls-22" d="M2585.15,2354.06c2.39,6.93,11.84,14.09,16.07,17.29a18.83,18.83,0,0,1,4,4.6,5.58,5.58,0,0,1,.62,1.36c2.33,7.23-9.27,15.42-7.14,18.68,1.54,2.37,9.37-.57,10.25,1.46s-5.71,5.69-4.78,8c.71,1.73,4.71.25,7.16,2.93,1.21,1.33.82,2.36,2.05,6.39a36.82,36.82,0,0,0,2.47,6.17c3.78,6.77,14.87,9.46,17.08,6.84.62-.73.12-1.37.78-3.86a19.88,19.88,0,0,1,2.3-4.95c2.39-3.78,8-6.4,13.72-10.32,10.58-7.25,13.55-13.57,14.44-15.71.11-.24.19-.46.27-.66a9.58,9.58,0,0,0,.4-1.09c2.39-7.73-3.73-16.07-7-19.95a106,106,0,0,0-24.31-21c-3.16-2-34-21-45.26-11.59C2584.24,2342,2583.53,2349.35,2585.15,2354.06Z" transform="translate(-539.03 -549.43)"/><path class="cls-21" d="M2602.87,2393.41c2.88-3.77,7.71-.06,7.62,4.91s-5,10-9.65,8.92S2599,2398.49,2602.87,2393.41Z" transform="translate(-539.03 -549.43)"/><path class="cls-23" d="M2759.23,3113.42c-25.8-79.2,79.68-178.4,36.11-237.07-30.93-41.64-98.81-11.56-133.45-59.66S2678,2715,2644.62,2669.11c-33.7-46.39-129.55-52.44-185.27-15.71-34.61,22.82-25.23,43.36-67.51,80.08-7.14,6.2-92,78.2-152.29,45.53-5.07-2.75-21.44-12.52-34.1-38.32-4,21.27-2.81,41.71,8.48,57.68,22.3,31.57,73.25,31,79.79,30.88,37.64-.46,49.94-18.75,123.39-52.34,49.81-22.78,74.72-34.17,94.45-31.27,65.46,9.63,101.17,105.06,108.21,123.85,29.53,78.91-1.16,98.21,23.67,171.71,8,23.74,47.45,129,146,156.61,34.05,9.54,66,7.2,91.91,1.24C2799.94,3176,2769.12,3143.79,2759.23,3113.42Z" transform="translate(-539.03 -549.43)"/></g></g></svg>